<svg width="118" height="104" viewBox="0 0 118 104" fill="none" xmlns="http://www.w3.org/2000/svg">
<mask id="mask0_268_2419" style="mask-type:luminance" maskUnits="userSpaceOnUse" x="0" y="4" width="99" height="100">
<path d="M0.5 4.31689H98.5293V104H0.5V4.31689Z" fill="white"/>
</mask>
<g mask="url(#mask0_268_2419)">
<path fill-rule="evenodd" clip-rule="evenodd" d="M57.9817 91.8661C62.6801 90.3307 75.703 85.4941 76.8101 81.3271C72.8003 75.4243 67.0211 80.3845 59.6946 81.2248C51.6185 82.1631 48.3017 82.7559 40.8053 84.6539C28.9112 87.6565 0.651268 59.2896 12.5889 29.1655C17.2045 17.5432 20.5212 14.1311 29.8918 7.1279C31.2255 6.12561 31.8749 5.55409 32.6681 4.85889C19.6452 8.84245 6.83149 22.0556 2.52974 39.0092C0.0062229 48.9553 0.524873 58.6157 3.44936 68.2547C10.7323 92.2329 36.6735 106.244 60.636 103.851C64.977 103.424 69.732 102.055 72.7175 100.217C74.4914 99.1167 75.6594 97.931 77.6861 96.724C82.9031 93.6404 99.2428 85.2894 97.8481 79.2415C89.894 74.2386 68.4811 98.2168 58.0035 91.8661H57.9817Z" fill="#0069AB"/>
</g>
<mask id="mask1_268_2419" style="mask-type:luminance" maskUnits="userSpaceOnUse" x="19" y="0" width="99" height="100">
<path d="M19.3145 0H117.501V99.3077H19.3145V0Z" fill="white"/>
</mask>
<g mask="url(#mask1_268_2419)">
<path fill-rule="evenodd" clip-rule="evenodd" d="M59.8216 12.254C55.1232 13.7851 42.1003 18.626 40.9976 22.7929C45.003 28.6958 50.7823 23.7313 58.1087 22.8953C66.1849 21.9527 69.506 21.3599 76.9981 19.4619C88.8922 16.4593 117.152 44.8262 105.214 74.9546C100.664 86.4532 97.4695 89.8226 87.9115 96.9922C86.5779 97.9902 85.9285 98.5617 85.1352 99.2569C98.1581 95.2734 110.976 82.0602 115.274 65.1109C117.801 55.1647 117.278 45.5044 114.354 35.8611C107.071 11.8872 81.1516 -2.12353 57.1717 0.2649C52.8307 0.691407 48.0713 2.06049 45.0858 3.89873C43.312 5.00338 42.1439 6.1848 40.1172 7.39181C34.9002 10.4755 18.5606 18.8307 19.9596 24.8743C27.9094 29.8772 49.3222 5.89904 59.7998 12.254H59.8216Z" fill="#0069AB"/>
</g>
<path fill-rule="evenodd" clip-rule="evenodd" d="M54.6982 73.0162C54.911 61.0599 50.8587 53.9962 42.5367 51.7811C42.1111 51.7811 41.7697 51.9925 41.3263 52.5209C39.5218 55.4715 45.8885 55.5772 43.7028 62.7245C41.1978 70.9068 24.3189 68.8854 26.2076 46.6374C27.7993 27.7011 43.7028 27.5954 46.6955 36.1344C48.8413 42.2513 43.9998 43.5988 45.3787 46.8488C45.4452 46.8664 45.5073 46.8885 45.5915 46.9105C46.0792 47.0778 47.3738 47.6063 48.8635 48.3021C50.7522 49.4207 52.2996 51.0236 53.5765 53.067C56.3342 57.5809 57.6066 64.3275 57.3983 73.3113C56.3963 73.188 55.5051 73.0602 54.7425 72.9766L54.6982 73.0162Z" fill="#0069AB"/>
<path fill-rule="evenodd" clip-rule="evenodd" d="M63.4723 73.0162C63.2713 61.0599 67.0993 53.9962 74.9648 51.7811C75.3627 51.7811 75.6852 51.9925 76.1082 52.5209C77.8128 55.4715 71.7943 55.5772 73.8591 62.7245C76.2254 70.9068 92.149 68.8854 90.3858 46.6375C88.8822 27.7011 73.8591 27.5954 71.0321 36.1344C69.005 42.2513 73.5785 43.5988 72.276 46.8488C72.2173 46.8664 72.1545 46.8885 72.0749 46.9105C71.6142 47.0778 70.3703 47.6063 68.9882 48.3021C67.1998 49.4207 65.7382 51.0236 64.532 53.067C61.9269 57.5809 60.7249 64.3275 60.9259 73.3113C61.8682 73.188 62.7101 73.0602 63.4305 72.9766L63.4723 73.0162Z" fill="#0069AB"/>
</svg>
