<svg width="1920" height="573" viewBox="0 0 1920 573" fill="none" xmlns="http://www.w3.org/2000/svg">
<path d="M2213 3.49936C2114.84 3.49936 2016.5 -10.0272 1929.51 44.1765C1875.36 77.9174 1840.29 130.523 1809.89 185.35C1771.55 254.51 1745.39 334.686 1685.25 386.343C1625.12 438.001 1550.74 469.203 1477.12 485.883C1387.9 506.095 1303.36 446.799 1243.15 386.822C1169.15 313.11 1117.11 213.051 1115.88 106.867C1115.47 71.5889 1142.37 32.5716 1179.99 28.1449C1244.98 20.4974 1254.46 214.905 1256.07 252.826C1258.17 302.629 1261.07 356.377 1245.54 404.528C1213.19 504.852 1058.2 540.812 1034.64 546.301C1011.09 551.789 850.642 592.905 695.169 618.562C539.697 644.22 360.081 629.4 204.98 679.817C126.352 705.376 44.1533 752.986 -6.7418 819.316C-45.7646 870.173 -45.7158 916.22 -51 977" stroke="url(#paint0_linear_737_6559)" stroke-width="4" stroke-linecap="round" stroke-dasharray="12 12"/>
<defs>
<linearGradient id="paint0_linear_737_6559" x1="-50.3222" y1="819.936" x2="2137.28" y2="2.26363" gradientUnits="userSpaceOnUse">
<stop stop-color="#00A3F4" stop-opacity="0.42"/>
<stop offset="0.563099" stop-color="#00A4F4" stop-opacity="0.11"/>
<stop offset="0.887261" stop-color="#00A4F4" stop-opacity="0.6"/>
</linearGradient>
</defs>
</svg>
